<?xml version="1.0" encoding="UTF-8"?>
<svg id="katman_2" data-name="katman 2" xmlns="http://www.w3.org/2000/svg" xmlns:xlink="http://www.w3.org/1999/xlink" viewBox="0 0 432 288">
  <defs>
    <style>
      .cls-1 {
        opacity: .7;
      }

      .cls-2 {
        fill: #e2ff10;
      }

      .cls-3 {
        clip-path: url(#clippath);
      }

      .cls-4 {
        fill: none;
      }
    </style>
    <clipPath id="clippath">
      <rect class="cls-4" x="72" y="-72" width="288" height="432" transform="translate(72 360) rotate(-90)"/>
    </clipPath>
  </defs>
  <g id="Layer_1" data-name="Layer 1">
    <g class="cls-3">
      <g>
        <g class="cls-1">
          <path class="cls-2" d="m445.04,3.42c-3.87-.08-7.72.39-11.16,1.34-102.55,28.45-129.41,19.17-153.11,10.99-12.65-4.37-24.59-8.49-46.52-6.66-12.54,1.04-23.94,3.53-34.98,5.93-19.88,4.33-38.65,8.42-60.49,3.17-2.55-.61-5.14-1.3-7.65-1.97-9.99-2.65-20.32-5.38-30.77-4.32-15.7,1.6-27.33,10.3-38.58,18.71-5.84,4.37-11.87,8.88-18.36,12.29-18.23,9.58-29.21,5.08-41.93-.14-6.35-2.6-12.87-5.27-20.78-6.42v.58c7.77,1.15,14.21,3.78,20.48,6.35,12.36,5.07,24.04,9.86,42.59.11,6.53-3.43,12.59-7.97,18.45-12.35,11.17-8.36,22.72-17,38.21-18.58,10.3-1.05,20.57,1.67,30.49,4.3,2.52.67,5.12,1.36,7.67,1.97,22.01,5.3,40.87,1.19,60.84-3.16,11.01-2.4,22.39-4.88,34.87-5.92,21.76-1.81,33.63,2.28,46.19,6.62,23.81,8.22,50.79,17.53,153.58-10.98,3.38-.94,7.16-1.39,10.95-1.31v-.56Z"/>
          <path class="cls-2" d="m445.04,10.62c-5.9-1.03-12.34-.55-17.79,1.06-4.45,1.32-8.12,2.35-11.56,3.24-18.27,4.76-33.49,7.06-46.92,9.08-17.54,2.65-32.01,4.17-44.23,4.63-21.05.8-32.92-2.44-44.39-5.57-1.97-.54-4-1.09-6.03-1.61-11.48-2.92-22.36-5.2-39.33-3.52-1.72.17-3.45.38-5.29.65-9.32,1.36-17.82,3.54-26.03,5.65-10.21,2.62-19.86,5.09-30.56,5.96-10.47.87-20.19.13-29.72-2.27-2.68-.67-5.4-1.44-8.04-2.18-9.4-2.63-19.12-5.34-28.88-4.76-15.26.93-26.8,8.51-37.96,15.83-5.56,3.65-11.31,7.42-17.47,10.36-17.74,8.45-28.36,4.82-40.66.63-6.95-2.37-14.13-4.82-23.26-5.3-1.15-.06-2.35-.09-3.58-.08-.87,0-1.75.07-2.62.16v.57c.87-.09,1.75-.15,2.63-.16,1.21-.01,2.4.01,3.53.07,9.02.48,16.15,2.91,23.05,5.26,11.95,4.07,23.23,7.92,41.25-.66,6.2-2.96,11.97-6.74,17.55-10.41,11.08-7.28,22.54-14.8,37.59-15.72,9.63-.58,19.28,2.12,28.61,4.73,2.64.74,5.37,1.5,8.06,2.18,9.62,2.42,19.43,3.17,29.98,2.29,10.77-.87,20.44-3.35,30.69-5.98,8.19-2.1,16.66-4.27,25.95-5.63,1.83-.27,3.55-.48,5.25-.65,16.83-1.67,27.65.6,39.05,3.5,2.02.52,4.05,1.07,6.01,1.61,11.53,3.15,23.47,6.41,44.63,5.6,12.26-.47,26.76-1.99,44.32-4.64,13.44-2.03,28.68-4.33,47-9.1,3.44-.9,7.12-1.93,11.58-3.25,5.39-1.6,11.76-2.06,17.57-1.02v-.58Z"/>
          <path class="cls-2" d="m445.04,19c-7.33-3.26-16.83-2.81-24.43-.4-4.36,1.38-7.9,2.41-11.16,3.24-14.59,3.74-26.53,5.05-38.08,6.31-2.45.27-4.86.53-7.25.81-18.73,2.22-31.96,3.54-42.9,4.29-19.7,1.34-30.96-.84-41.84-2.96-1.97-.38-4-.78-6.03-1.14-.91-.16-1.83-.33-2.77-.5-9.43-1.71-20.12-3.64-35.26-1.88-1.63.19-3.29.43-5.09.75-8.48,1.5-16.02,3.77-23.31,5.96-9.95,2.99-19.34,5.82-30.56,6.66-10.12.76-19.54-.06-28.79-2.49-2.83-.75-5.72-1.6-8.5-2.43-8.78-2.6-17.82-5.29-26.91-5.15-14.91.23-25.93,6.43-37.59,12.99-5.2,2.93-10.58,5.95-16.33,8.39-17.23,7.32-27.5,4.58-39.39,1.41-6.65-1.77-13.54-3.61-22.25-3.79-1.08-.02-2.21-.01-3.44.03-4.23.14-8.55,1.25-12.46,3.05v.64c3.9-1.86,8.23-2.99,12.48-3.13,1.23-.04,2.34-.05,3.4-.03,8.61.18,15.45,2,22.06,3.76,11.53,3.07,22.41,5.98,39.9-1.45,5.79-2.46,11.18-5.49,16.4-8.43,11.58-6.51,22.52-12.66,37.23-12.89,8.93-.14,17.95,2.54,26.67,5.12,2.79.83,5.68,1.68,8.52,2.43,9.34,2.45,18.84,3.28,29.05,2.52,11.31-.84,20.74-3.68,30.73-6.69,7.27-2.19,14.78-4.45,23.22-5.94,1.78-.31,3.42-.56,5.04-.74,15.02-1.74,25.65.18,35.03,1.88.94.17,1.86.34,2.77.5,2.02.36,4.05.76,6.02,1.14,10.93,2.13,22.23,4.33,42.04,2.97,10.95-.75,24.2-2.07,42.94-4.29,2.39-.28,4.8-.55,7.24-.81,11.57-1.27,23.54-2.58,38.19-6.33,3.27-.84,6.83-1.87,11.2-3.25,7.55-2.4,17-2.82,24.19.52v-.66Z"/>
          <path class="cls-2" d="m445.04,30.36c-.39-.48-.8-.95-1.28-1.4-7.78-7.37-20.48-6.61-29.78-3.44-4.27,1.44-7.58,2.44-10.76,3.24-13.06,3.3-23.71,3.92-34.01,4.52-3.34.19-6.5.38-9.73.65-14.61,1.23-26.63,2.44-37.23,3.51l-4.33.43c-18.37,1.84-29.01.7-39.3-.4-2-.21-3.99-.43-6.02-.62-2-.19-4.06-.44-6.25-.71-8.45-1.04-18.02-2.21-30.48-.53-1.57.21-3.16.49-4.88.85-7.78,1.64-14.5,4.01-21,6.31-9.51,3.36-18.5,6.54-30.14,7.32-9.73.65-18.84-.24-27.85-2.72-3.02-.84-6.08-1.8-9.05-2.73-8.13-2.55-16.53-5.2-24.85-5.49-14.71-.52-25.85,4.68-37.63,10.17-4.72,2.2-9.6,4.47-14.79,6.39-16.71,6.19-27.1,4.26-38.09,2.21-6.37-1.19-12.96-2.41-21.26-2.29-1,.01-2.08.06-3.31.14-8.37.51-16.98,4.45-22.29,10.12v.94c5.14-5.87,13.86-9.98,22.34-10.49,1.22-.08,2.28-.12,3.27-.14,8.22-.13,14.76,1.1,21.1,2.28,11.11,2.07,21.6,4.02,38.51-2.25,5.22-1.93,10.11-4.21,14.84-6.42,11.7-5.45,22.74-10.59,37.28-10.1,8.21.29,16.56,2.91,24.64,5.45,2.97.93,6.04,1.9,9.07,2.74,9.1,2.51,18.3,3.41,28.12,2.74,11.75-.79,20.79-3.99,30.35-7.37,6.47-2.29,13.17-4.66,20.9-6.28,1.7-.36,3.28-.63,4.83-.84,12.35-1.67,21.87-.5,30.27.54,2.2.27,4.27.52,6.28.71,2.03.19,4.01.4,6.01.62,10.33,1.11,21.01,2.25,39.46.4l4.33-.44c10.6-1.07,22.61-2.28,37.22-3.51,3.22-.27,6.38-.45,9.71-.65,10.33-.6,21.02-1.23,34.16-4.54,3.19-.8,6.53-1.81,10.82-3.26,9.08-3.1,21.48-3.86,29.02,3.29.68.65,1.27,1.33,1.78,2.05v-1.02Z"/>
          <path class="cls-2" d="m445.04,48.9c-.32-.48-.62-.97-.9-1.46-.78-1.34-1.43-2.75-2.06-4.11-1.43-3.09-2.91-6.29-5.9-8.79-9.47-7.94-23.32-4.11-28.83-2.09-4.09,1.48-7.28,2.48-10.36,3.24-12.09,3-21.83,3.01-31.25,3.03-3.56,0-7.24.01-10.91.19-14.1.68-27.26,1.85-40.23,3.59-17.35,2.33-27.49,2.22-37.29,2.12-1.82-.02-3.63-.04-5.48-.04-2.82,0-5.88-.24-9.13-.49-7.52-.57-16.04-1.22-26.3.38-1.5.23-3.03.54-4.68.95-7.2,1.78-13.21,4.28-19.02,6.69-8.96,3.72-17.42,7.24-29.4,7.96-9.33.56-18.14-.4-26.91-2.94-3.25-.95-6.53-2.05-9.71-3.11-7.43-2.49-15.12-5.07-22.67-5.75-14.77-1.32-26.26,2.91-38.42,7.38-4,1.47-8.13,2.99-12.5,4.36-16.15,5.07-26.16,4.08-36.76,3.03-6.1-.61-12.42-1.23-20.31-.81-1.1.06-2.22.16-3.18.25-8.52.8-17.18,4.74-22.61,10.29-3.17,3.24-4.41,6.35-5.62,9.36-.95,2.36-1.84,4.6-3.6,6.8-.09.12-.2.22-.29.34v.96c.29-.32.59-.64.86-.98,1.81-2.27,2.72-4.54,3.68-6.94,1.18-2.96,2.41-6.02,5.5-9.18,5.24-5.36,13.94-9.32,22.16-10.09.94-.09,2.06-.19,3.14-.24,7.84-.41,14.12.21,20.19.81,10.68,1.06,20.77,2.06,37.07-3.06,4.38-1.37,8.52-2.9,12.53-4.37,12.07-4.45,23.48-8.64,38.07-7.34,7.46.67,15.1,3.24,22.5,5.71,3.18,1.07,6.48,2.17,9.74,3.12,8.86,2.56,17.75,3.54,27.18,2.97,12.11-.73,20.63-4.26,29.65-8.01,5.79-2.41,11.77-4.89,18.91-6.66,1.62-.4,3.13-.7,4.61-.93,10.17-1.58,18.64-.94,26.12-.37,3.26.25,6.34.48,9.19.49,1.85,0,3.66.02,5.47.04,9.84.1,20.01.21,37.41-2.12,12.95-1.74,26.09-2.91,40.16-3.59,3.65-.18,7.16-.18,10.87-.19,9.47-.01,19.26-.03,31.44-3.05,3.1-.77,6.32-1.78,10.43-3.27,5.39-1.97,18.9-5.72,28.08,1.97,2.89,2.42,4.28,5.42,5.75,8.59.63,1.37,1.29,2.79,2.08,4.15.46.8.97,1.57,1.51,2.34v-1.12Z"/>
          <path class="cls-2" d="m445.04,59.94c-3.06-2.44-5.66-5.15-7.68-8.07-.82-1.19-1.55-2.44-2.25-3.64-1.76-3.01-3.42-5.85-6.52-8.13-6.86-5.04-16.24-5.29-27.88-.74-3.79,1.48-6.96,2.51-9.95,3.24-12.74,3.1-22.23,2.44-32.27,1.75-2.68-.19-5.46-.38-8.27-.49-14.93-.59-27.41,1.28-38.92,3.25-17.54,3-27.21,3.92-37.45,4.9l-2.78.27c-3.38.33-7.23.18-11.32.03-6.69-.25-14.27-.53-22.81.99-1.45.26-2.92.6-4.48,1.05-6.69,1.92-12.08,4.56-17.28,7.11-8.31,4.07-16.16,7.91-28.41,8.55-8.94.46-17.44-.57-25.98-3.17-3.53-1.08-7.09-2.36-10.53-3.6-6.69-2.4-13.6-4.88-20.34-5.91-15.36-2.32-27.12.9-40.74,4.62-2.79.76-5.67,1.55-8.66,2.31-15.51,3.94-25.12,3.9-35.29,3.85-5.87-.03-11.95-.05-19.5.66-1.02.1-2.09.23-3.04.35-8.12,1.03-16.61,4.72-22.16,9.62-3.18,2.81-4.76,5.51-6.28,8.13-1.25,2.14-2.42,4.16-4.4,6.14-1.58,1.58-3.4,2.94-5.57,4.17-1.11.62-2.3,1.18-3.54,1.68v.62c1.38-.55,2.7-1.15,3.92-1.84,2.23-1.25,4.09-2.65,5.71-4.27,2.03-2.03,3.22-4.08,4.49-6.25,1.51-2.58,3.06-5.25,6.17-7.99,5.45-4.81,13.79-8.43,21.77-9.45.94-.12,2.01-.25,3.02-.35,7.51-.71,13.56-.68,19.42-.66,10.22.05,19.88.09,35.49-3.87,3-.76,5.88-1.55,8.68-2.31,13.53-3.7,25.22-6.9,40.41-4.6,6.66,1.01,13.24,3.37,20.2,5.87,3.45,1.24,7.01,2.52,10.56,3.61,8.63,2.62,17.21,3.67,26.25,3.2,12.41-.65,20.33-4.53,28.71-8.63,5.18-2.54,10.53-5.16,17.16-7.06,1.53-.44,2.97-.78,4.4-1.03,8.46-1.51,15.99-1.23,22.64-.98,4.11.15,7.99.3,11.42-.03l2.78-.27c10.26-.98,19.94-1.9,37.51-4.91,11.46-1.96,23.9-3.83,38.75-3.24,2.81.11,5.57.3,8.25.49,10.11.7,19.66,1.36,32.51-1.77,3.03-.74,6.23-1.78,10.05-3.27,11.38-4.45,20.51-4.23,27.15.65,3,2.2,4.63,4.99,6.36,7.95.71,1.21,1.44,2.46,2.28,3.67,2.15,3.12,4.95,6,8.26,8.56v-.77Z"/>
          <path class="cls-2" d="m445.04,67.77c-5.75-3.02-10.71-6.93-14.46-11.48-.85-1.03-1.63-2.1-2.39-3.14-2.04-2.79-3.97-5.43-7.19-7.49-8.96-5.73-19.09-2.68-26.93.61-3.61,1.52-6.65,2.55-9.55,3.24-10.72,2.56-19.05,1.48-27.11.43-3.8-.49-7.73-1-11.87-1.13-14-.43-26.28.52-37.57,2.9-9.05,1.91-15.82,3.44-21.78,4.78-5.66,1.28-10.55,2.38-15.9,3.47-3.74.76-8,.75-12.92.73-5.96-.02-12.71-.04-19.9,1.42-1.39.28-2.83.67-4.27,1.15-6.24,2.07-11.06,4.86-15.71,7.56-7.6,4.4-14.79,8.56-27.26,9.12-8.55.38-16.74-.73-25.04-3.39-3.89-1.26-7.79-2.77-11.56-4.23-6.13-2.38-11.93-4.62-17.79-5.92-17.13-3.77-30.28-1.26-46.91,1.92l-.99.19c-14.47,2.76-23.5,3.65-33.06,4.58-5.86.57-11.93,1.17-19.46,2.23-.82.12-1.66.25-2.52.4l-.39.06c-7.86,1.29-15.97,4.63-21.71,8.94-3.14,2.36-5.03,4.66-6.86,6.87-1.58,1.92-3.07,3.73-5.28,5.49-1.74,1.38-3.62,2.56-5.76,3.6-3.58,1.74-7.88,2.9-12.19,3.94v.59c4.41-1.06,8.83-2.24,12.53-4.04,2.18-1.06,4.11-2.27,5.88-3.68,2.26-1.8,3.78-3.64,5.38-5.58,1.8-2.19,3.67-4.46,6.75-6.77,5.65-4.24,13.64-7.54,21.39-8.81l.39-.06c.85-.14,1.68-.28,2.5-.39,7.51-1.06,13.57-1.65,19.43-2.23,9.57-.94,18.62-1.82,33.13-4.59l.99-.19c16.55-3.16,29.62-5.66,46.59-1.93,5.81,1.29,11.58,3.52,17.68,5.88,3.78,1.46,7.69,2.98,11.6,4.24,8.39,2.69,16.67,3.81,25.32,3.43,12.66-.56,19.92-4.77,27.61-9.22,4.62-2.68,9.4-5.44,15.57-7.5,1.42-.47,2.83-.85,4.18-1.12,7.1-1.45,13.82-1.43,19.74-1.41,4.76.02,9.26.03,13.08-.75,5.36-1.09,10.25-2.2,15.92-3.48,5.97-1.35,12.73-2.87,21.77-4.78,11.23-2.37,23.46-3.31,37.38-2.88,4.1.13,8.01.63,11.79,1.12,8.13,1.06,16.54,2.15,27.4-.45,2.95-.7,6.02-1.74,9.67-3.28,7.65-3.22,17.55-6.21,26.21-.67,3.12,2,5.02,4.59,7.02,7.34.76,1.04,1.55,2.12,2.41,3.16,3.88,4.7,9.03,8.73,15.01,11.82v-.66Z"/>
          <path class="cls-2" d="m445.04,73.9c-8.01-2.72-15.44-7.3-21.24-13.17-.84-.86-1.65-1.74-2.42-2.59-2.36-2.59-4.59-5.04-7.96-6.9-9.03-4.97-17.78-1.75-25.97,1.96-3.47,1.57-6.29,2.57-9.15,3.24-10.16,2.37-17.54.86-25.35-.75-3.81-.78-7.75-1.59-12.03-1.91-13.67-1.01-25.53-.17-36.24,2.56-10.99,2.8-18.25,5.41-25.26,7.93-3.34,1.2-6.49,2.33-9.88,3.43-3.96,1.27-8.86,1.41-14.06,1.55-5.33.15-11.36.31-17.46,1.73-1.34.31-2.71.73-4.07,1.25-5.84,2.23-10.12,5.18-14.26,8.03-6.86,4.73-13.33,9.19-25.98,9.65-8.16.3-16.04-.88-24.1-3.61-4.37-1.49-8.71-3.32-12.9-5.09-5.16-2.17-10.03-4.23-14.93-5.69-16.72-4.98-30.15-4.73-46.39-2.71-15.97,1.99-25.17,3.92-35.82,6.17-4.43.93-9.01,1.9-14.42,2.94-.6.12-1.22.24-1.84.37l-.93.19c-7.62,1.56-15.37,4.57-21.25,8.26-3.04,1.91-5.18,3.77-7.25,5.57-1.97,1.72-3.84,3.34-6.35,4.89-1.9,1.18-3.85,2.17-5.94,3.03-4.29,1.76-9.39,2.84-14.32,3.88-2.17.46-4.39.93-6.51,1.45v.59c2.13-.53,4.35-1,6.68-1.49,4.97-1.05,10.1-2.13,14.45-3.92,2.13-.88,4.11-1.89,6.05-3.08,2.56-1.58,4.44-3.22,6.43-4.96,2.05-1.78,4.17-3.63,7.17-5.51,5.81-3.65,13.47-6.63,21.01-8.17l.93-.19c.62-.13,1.23-.25,1.83-.37,5.42-1.04,10-2.01,14.44-2.94,10.64-2.24,19.82-4.17,35.76-6.16,16.14-2.01,29.48-2.26,46.06,2.68,4.86,1.46,9.71,3.5,14.85,5.67,4.21,1.77,8.56,3.61,12.96,5.11,8.16,2.76,16.13,3.95,24.39,3.65,12.88-.47,19.44-4.99,26.38-9.78,4.1-2.83,8.35-5.75,14.11-7.95,1.33-.5,2.66-.91,3.97-1.22,6.02-1.4,12.01-1.56,17.3-1.71,5.25-.14,10.21-.28,14.28-1.59,3.41-1.1,6.57-2.23,9.91-3.43,7-2.52,14.24-5.12,25.19-7.91,10.63-2.71,22.4-3.54,35.99-2.53,4.23.31,8.14,1.12,11.93,1.89,7.56,1.55,15.37,3.15,25.7.74,2.91-.68,5.78-1.69,9.29-3.29,8.01-3.63,16.56-6.78,25.28-1.99,3.28,1.8,5.47,4.21,7.8,6.77.78.86,1.59,1.75,2.44,2.61,5.94,6.01,13.55,10.68,21.76,13.43v-.61Z"/>
          <path class="cls-2" d="m445.04,78.61c-.87-.14-1.74-.3-2.6-.48-8.89-1.9-17.44-6.26-25.43-12.97-.78-.66-1.54-1.32-2.29-1.98-2.74-2.41-5.32-4.69-8.91-6.36-9.37-4.36-17.32-.46-25.01,3.31-3.28,1.61-5.98,2.61-8.75,3.24-9.64,2.2-16.48.23-23.72-1.86-3.78-1.09-7.68-2.22-12.07-2.74-13.5-1.62-24.6-.92-34.92,2.21-10.25,3.11-17.06,6.63-23.64,10.03-3.01,1.56-5.85,3.03-8.96,4.43-4.06,1.83-9.28,2.13-14.82,2.44-5.01.29-10.19.58-15.39,1.96-1.3.34-2.6.8-3.87,1.35-5.48,2.4-9.25,5.52-12.9,8.54-6.08,5.03-11.83,9.79-24.62,10.16-7.77.22-15.35-1.03-23.17-3.84-5.03-1.82-9.96-4.11-14.73-6.32-4.01-1.86-7.8-3.62-11.59-5.1-16.03-6.2-29.03-8.38-44.88-7.53-14.58.79-23.48,3.74-32.9,6.87-4.62,1.53-9.4,3.12-15.08,4.54-.42.1-.85.21-1.28.32-.45.11-.9.23-1.36.35-7.49,1.87-14.87,4.56-20.79,7.59-2.81,1.43-5.07,2.84-7.25,4.19-2.5,1.55-4.86,3.01-7.8,4.38-2.07.96-4.08,1.77-6.13,2.46-4.32,1.45-9.25,2.35-14.02,3.23-3.06.56-5.96,1.1-8.72,1.76-2.4.58-4.63,1.13-6.74,1.67v.59c2.16-.55,4.46-1.12,6.93-1.71,2.74-.66,5.62-1.19,8.68-1.75,4.79-.88,9.75-1.79,14.12-3.26,2.08-.7,4.12-1.51,6.21-2.49,2.98-1.39,5.36-2.86,7.87-4.42,2.17-1.35,4.42-2.74,7.2-4.16,5.87-3,13.2-5.67,20.63-7.53.46-.11.91-.23,1.36-.35.43-.11.85-.22,1.27-.32,5.71-1.42,10.5-3.01,15.13-4.55,9.37-3.11,18.22-6.05,32.7-6.83,15.72-.85,28.63,1.32,44.55,7.48,3.77,1.47,7.55,3.22,11.55,5.08,4.78,2.22,9.72,4.52,14.79,6.35,7.91,2.84,15.59,4.1,23.46,3.88,13.06-.37,18.89-5.21,25.07-10.32,3.61-2.99,7.35-6.08,12.73-8.44,1.23-.54,2.49-.98,3.76-1.31,5.13-1.36,10.27-1.65,15.24-1.93,5.61-.32,10.9-.62,15.09-2.51,3.12-1.41,5.97-2.88,8.99-4.44,6.56-3.39,13.33-6.9,23.52-9.98,10.21-3.1,21.2-3.79,34.59-2.18,4.33.52,8.2,1.64,11.95,2.72,7.34,2.12,14.28,4.12,24.12,1.87,2.83-.64,5.58-1.66,8.91-3.3,7.87-3.86,15.31-7.51,24.34-3.31,3.49,1.63,6.04,3.88,8.75,6.26.75.66,1.51,1.33,2.3,1.99,8.07,6.79,16.73,11.2,25.74,13.12.91.19,1.84.36,2.76.51v-.58Z"/>
          <path class="cls-2" d="m445.04,81.99c-3.14-.13-6.32-.34-9.39-.88-10.43-1.81-19.07-7.11-25.43-11.53-.64-.44-1.27-.88-1.89-1.32-3.21-2.26-6.24-4.39-10.11-5.89-9.03-3.49-15.49.02-22.34,3.74-.57.31-1.14.62-1.72.93-3.11,1.65-5.68,2.64-8.34,3.24-9.16,2.04-15.48-.37-22.18-2.92-3.71-1.41-7.55-2.87-12.03-3.64-13.13-2.23-23.8-1.64-33.59,1.86-9.21,3.3-15.42,7.64-21.42,11.85-2.88,2.02-5.6,3.93-8.63,5.72-4.08,2.43-9.52,2.9-15.28,3.39-4.51.39-9.17.78-13.63,2.13-1.26.38-2.5.87-3.66,1.45-5.13,2.57-8.42,5.88-11.59,9.07-5.29,5.33-10.29,10.37-23.2,10.63-7.41.15-14.66-1.18-22.23-4.06-6-2.3-11.76-5.31-17.33-8.22-2.58-1.35-5.02-2.63-7.47-3.83-15.09-7.38-27.61-12.02-43.37-12.35-13.92-.3-22.4,3.66-31.39,7.84-4.41,2.05-8.96,4.17-14.33,5.86l-.55.17c-.64.2-1.29.41-1.95.6-8.19,2.45-14.84,4.71-20.32,6.91-2.19.88-4.18,1.74-6.11,2.57-3.41,1.47-6.64,2.86-10.4,4.11-2.27.76-4.28,1.35-6.32,1.88-4.31,1.11-9.01,1.84-13.56,2.55-3.03.47-5.9.92-8.67,1.47-5.33,1.04-9.95,2.04-14.11,3.03-.59.14-1.19.28-1.78.43v.59c.66-.16,1.31-.32,1.97-.47,4.15-.99,8.76-1.98,14.08-3.02,2.75-.55,5.61-.99,8.63-1.46,4.57-.71,9.3-1.45,13.64-2.57,2.06-.53,4.09-1.13,6.37-1.9,3.8-1.27,7.03-2.66,10.46-4.14,1.92-.83,3.91-1.68,6.09-2.56,5.46-2.19,12.09-4.44,20.26-6.89.67-.2,1.32-.41,1.96-.61l.55-.17c5.41-1.7,9.99-3.83,14.42-5.89,8.9-4.14,17.32-8.06,31.04-7.77,15.61.32,28.05,4.94,43.05,12.27,2.44,1.2,4.88,2.47,7.46,3.82,5.59,2.92,11.37,5.95,17.4,8.26,7.67,2.92,15.06,4.26,22.52,4.11,13.22-.27,18.31-5.4,23.7-10.84,3.14-3.16,6.38-6.43,11.42-8.95,1.13-.56,2.32-1.04,3.54-1.4,4.38-1.32,9-1.72,13.47-2.1,5.86-.5,11.39-.97,15.61-3.49,3.05-1.8,5.78-3.72,8.67-5.74,5.96-4.18,12.13-8.5,21.25-11.76,9.66-3.46,20.2-4.04,33.19-1.83,4.4.75,8.2,2.2,11.88,3.6,6.81,2.59,13.24,5.04,22.63,2.95,2.73-.61,5.36-1.63,8.53-3.3.58-.31,1.15-.62,1.72-.93,6.68-3.63,12.99-7.05,21.69-3.7,3.79,1.46,6.78,3.57,9.96,5.81.63.44,1.26.88,1.9,1.32,6.42,4.46,15.14,9.81,25.72,11.65,3.13.54,6.35.76,9.53.89v-.57Z"/>
          <path class="cls-2" d="m445.04,84.5c-1.55-.02-3.11,0-4.63.01-3.82.04-7.76.09-11.55-.41-9.09-1.21-16.89-5.28-25.42-10.08l-.63-.35c-3.97-2.23-7.72-4.33-12.17-5.71-8.81-2.74-14.38.69-20.27,4.31-.93.57-1.87,1.15-2.83,1.71-2.9,1.68-5.35,2.67-7.94,3.23-8.7,1.88-14.53-.94-20.71-3.93-3.62-1.75-7.36-3.56-11.9-4.58-12.75-2.86-23.01-2.38-32.27,1.52-8.18,3.44-13.76,8.56-19.16,13.51-2.64,2.42-5.37,4.93-8.34,7.16-4.03,3.04-9.61,3.68-15.51,4.36-4.07.47-8.28.95-12.12,2.27-1.23.42-2.39.95-3.46,1.55-4.81,2.75-7.61,6.25-10.32,9.64-4.5,5.62-8.74,10.94-21.74,11.07-7,.09-13.95-1.31-21.29-4.28-7.56-3.08-14.57-7.36-21.35-11.5l-1.94-1.18c-13.14-7.99-25.55-15.53-41.86-17.17-13.35-1.35-21.45,3.63-30.03,8.9-4.15,2.54-8.43,5.18-13.42,7.1-.77.3-1.56.59-2.36.88-6.2,2.2-13.14,4.25-19.85,6.24-6.13,1.81-11.71,3.43-17.97,4.79-2.36.51-4.49.94-6.51,1.3-4.25.77-8.7,1.33-13.01,1.87-3.04.38-5.91.75-8.72,1.18-5.55.84-9.94,1.59-13.81,2.36-3.52.69-7.39,1.46-11.24,2.52v.6c3.89-1.08,7.82-1.86,11.39-2.57,3.87-.77,8.25-1.52,13.78-2.36,2.8-.43,5.67-.79,8.7-1.17,4.31-.54,8.77-1.11,13.05-1.88,2.03-.37,4.17-.79,6.54-1.31,6.28-1.37,11.88-2.98,18.03-4.8,6.72-1.99,13.67-4.05,19.89-6.25.81-.29,1.6-.59,2.38-.89,5.05-1.95,9.37-4.6,13.54-7.16,8.47-5.2,16.47-10.11,29.55-8.79,16.13,1.62,28.47,9.12,41.54,17.07l1.93,1.18c6.8,4.16,13.83,8.45,21.45,11.55,7.43,3.01,14.47,4.43,21.59,4.34,13.36-.14,17.7-5.57,22.3-11.32,2.67-3.35,5.44-6.81,10.14-9.49,1.03-.58,2.15-1.09,3.33-1.5,3.76-1.29,7.92-1.77,11.95-2.24,6.01-.69,11.68-1.34,15.87-4.5,2.99-2.25,5.73-4.76,8.38-7.2,5.35-4.91,10.89-10,18.96-13.39,9.11-3.83,19.21-4.3,31.79-1.48,4.45,1,8.15,2.79,11.73,4.52,6.3,3.05,12.25,5.93,21.22,3.99,2.67-.58,5.18-1.6,8.15-3.31.96-.56,1.91-1.14,2.84-1.71,5.74-3.53,11.16-6.87,19.64-4.24,4.38,1.36,8.09,3.44,12.03,5.65l.63.35c8.6,4.84,16.47,8.94,25.7,10.17,3.85.5,7.83.46,11.66.42,1.52-.02,3.07-.03,4.62-.01v-.57Z"/>
          <path class="cls-2" d="m445.04,86.96c-3.99-.48-8.07-.24-12.04,0-3.6.22-7.32.44-10.93.13-7.97-.7-15.22-4-22.24-7.2-5.35-2.44-10.89-4.96-16.79-6.37-8.71-2.09-13.56,1.36-18.69,5.01-3.22,2.29-6.56,4.66-10.98,5.58-8.26,1.73-13.63-1.49-19.32-4.89-3.5-2.1-7.12-4.27-11.7-5.57-12.55-3.56-22.1-3.2-30.95,1.17-7.17,3.54-12.09,9.35-16.85,14.97-2.53,2.99-5.15,6.08-8.08,8.81-3.95,3.67-9.84,4.53-15.54,5.36-4.97.72-10.1,1.47-14.05,4.05-4.49,2.93-6.82,6.64-9.07,10.22-3.86,6.15-7.19,11.46-20.26,11.5h-.13c-16,0-30.2-9-41.99-17.81-.88-.66-1.76-1.32-2.65-1.99-11.29-8.49-22.96-17.27-37.69-20.01-12.84-2.38-20.56,3.63-28.72,10-3.87,3.02-7.87,6.14-12.47,8.29-15.22,7.11-37.89,9.26-57.88,11.16-8.85.84-17.21,1.63-24.59,2.78-7.85,1.22-14.97,2.55-20.69,5.53v.67c5.69-3.07,12.86-4.41,20.81-5.65,7.36-1.15,15.71-1.94,24.54-2.78,20.06-1.9,42.8-4.06,58.14-11.22,4.67-2.18,8.7-5.33,12.6-8.37,8.03-6.26,15.63-12.18,28.12-9.86,14.56,2.7,26.16,11.43,37.39,19.88.88.67,1.77,1.33,2.65,1.99,11.88,8.88,26.21,17.96,42.44,17.96h.13c13.48-.04,17.06-5.75,20.86-11.8,2.22-3.53,4.51-7.18,8.89-10.04,3.82-2.49,8.87-3.23,13.75-3.94,5.81-.85,11.82-1.72,15.92-5.54,2.96-2.75,5.59-5.85,8.13-8.86,4.72-5.57,9.6-11.33,16.64-14.81,8.67-4.28,18.04-4.62,30.39-1.12,4.48,1.27,8.06,3.41,11.52,5.49,5.82,3.48,11.31,6.78,19.87,4.98,4.58-.96,7.97-3.37,11.25-5.7,4.99-3.55,9.71-6.89,18.07-4.9,5.83,1.39,11.33,3.9,16.65,6.32,7.07,3.22,14.39,6.55,22.49,7.26,3.67.32,7.42.1,11.05-.12,3.97-.24,8.05-.48,11.99,0v-.57Z"/>
          <path class="cls-2" d="m445.04,96.13c-4.11-.75-8.29-.87-12.35-.98-3.67-.11-7.13-.21-10.54-.73-7.31-1.12-13.7-4.42-20.47-7.91-5.44-2.81-11.07-5.71-17.22-7.37-8.94-2.41-14.3,1.04-19.97,4.69-3.13,2.02-6.37,4.1-10.31,5.16-1.62.43-3.07.71-4.42.83-5.13.48-8.71-1.21-12.85-3.17-.91-.43-1.85-.87-2.83-1.3-2.52-1.11-5.6-2.35-9.26-3.15-7.42-1.63-13.29-2.06-18.48-1.34-4.31.61-8.25,1.99-12.03,4.23-2.98,1.77-5.72,4.08-8.64,7.29-1.78,1.96-3.48,4.12-5.14,6.2-3.08,3.88-6.26,7.89-10.16,11.1-4.4,3.65-10.56,4.05-16.51,4.44-4.68.31-9.1.6-12.66,2.35-4.32,2.13-6.76,5.11-9.13,8-4.08,4.98-7.94,9.68-20.82,10.29-1.29.06-2.62.08-3.95.06-15.04-.24-28.22-7.7-39.13-14.97-1.41-.94-2.83-1.9-4.25-2.88l-2.22-1.51c-9.94-6.75-21.22-14.4-35.22-16.78-12.27-2.09-19.81,3.43-27.78,9.26-3.74,2.74-7.61,5.57-12.02,7.55-15.03,6.7-37.02,8.75-56.43,10.57-8.11.76-15.76,1.47-22.62,2.47-8.01,1.18-17.98,2.64-24.6,7.89-.38.3-.74.61-1.08.92-.44.4-.84.82-1.24,1.24v.93c.54-.62,1.11-1.22,1.73-1.78.34-.31.69-.6,1.05-.89,6.47-5.13,16.33-6.58,24.25-7.74,6.83-.99,14.48-1.71,22.58-2.47,19.46-1.82,41.52-3.88,56.67-10.63,4.47-2,8.37-4.86,12.14-7.62,7.85-5.74,15.26-11.17,27.2-9.13,13.84,2.35,25.05,9.96,34.93,16.67l2.22,1.51c1.43.97,2.84,1.94,4.26,2.88,11,7.33,24.3,14.85,39.54,15.09,1.35.02,2.69,0,4-.06,13.21-.63,17.34-5.66,21.34-10.53,2.32-2.83,4.73-5.76,8.92-7.83,3.43-1.69,7.77-1.98,12.37-2.28,6.08-.4,12.36-.81,16.93-4.6,3.94-3.25,7.15-7.28,10.25-11.19,1.65-2.08,3.35-4.22,5.11-6.17,2.87-3.16,5.57-5.44,8.49-7.17,3.7-2.19,7.55-3.54,11.75-4.13,5.09-.7,10.87-.28,18.19,1.33,3.6.78,6.63,2,9.12,3.1.97.43,1.9.87,2.81,1.3,4.24,2,7.91,3.73,13.25,3.24,1.4-.13,2.89-.41,4.55-.85,4.05-1.09,7.34-3.2,10.51-5.25,5.53-3.56,10.74-6.92,19.35-4.6,6.07,1.64,11.67,4.52,17.08,7.31,6.52,3.36,13.26,6.84,20.7,7.98,3.46.53,7.11.63,10.64.74,4.08.12,8.28.24,12.38,1v-.58Z"/>
          <path class="cls-2" d="m445.04,105.36c-4.14-.98-8.31-1.49-12.36-1.99-3.68-.45-7.15-.88-10.45-1.62-6.68-1.51-12.53-4.92-18.72-8.53-5.51-3.21-11.21-6.53-17.63-8.46-9.28-2.79-15.26.74-21.59,4.48-2.91,1.72-5.92,3.5-9.29,4.62-1.69.56-3.02.93-4.21,1.18-4.67.95-7.65-.02-11.42-1.24-.9-.29-1.83-.6-2.84-.89-2.57-.75-5.61-1.6-9.23-2.16-5.77-.88-12.48-1.62-18.6-.4-4.13.83-7.88,2.46-11.47,4.99-2.69,1.91-5.18,4.38-7.85,7.79-1.15,1.47-2.26,2.99-3.42,4.59-3.4,4.68-6.91,9.52-11.67,13.01-4.96,3.65-11.45,3.5-17.72,3.36-4.07-.09-7.91-.18-11.01.82-4.3,1.38-6.81,3.61-9.46,5.98-4.26,3.79-8.67,7.72-21.11,8.87-1.27.12-2.6.22-3.95.29-15.61.85-29.02-5.74-40.08-12.29-1.79-1.06-3.55-2.15-5.41-3.3l-2.35-1.45c-10.71-6.64-21.79-13.5-35.29-15.59-11.68-1.82-19.02,3.2-26.8,8.5-3.63,2.47-7.38,5.03-11.61,6.83-14.87,6.32-36.24,8.27-55.1,10-7.32.67-14.23,1.3-20.51,2.14-7.65,1.05-17.18,2.36-23.62,6.97-.37.26-.72.54-1.06.81-4.1,3.34-6.38,7.66-8.46,11.92v1.5c.04-.08.08-.16.11-.23,2.2-4.55,4.48-9.24,8.82-12.78.33-.27.68-.53,1.03-.79,6.3-4.51,15.72-5.81,23.29-6.84,6.26-.84,13.17-1.47,20.48-2.14,18.92-1.73,40.36-3.69,55.34-10.06,4.29-1.82,8.07-4.4,11.73-6.89,7.65-5.22,14.88-10.14,26.25-8.38,13.35,2.07,24.36,8.89,35.01,15.49l2.35,1.46c1.87,1.15,3.63,2.25,5.42,3.31,11.16,6.61,24.71,13.26,40.52,12.4,1.36-.07,2.7-.17,3.98-.29,12.69-1.18,17.39-5.36,21.53-9.05,2.6-2.32,5.06-4.51,9.21-5.84,2.98-.95,6.75-.87,10.75-.78,6.11.14,13.03.29,18.19-3.5,4.83-3.55,8.37-8.43,11.8-13.14,1.16-1.6,2.26-3.11,3.41-4.58,2.63-3.36,5.08-5.79,7.72-7.66,3.51-2.47,7.17-4.07,11.19-4.88,5.99-1.2,12.62-.47,18.32.4,3.57.55,6.59,1.39,9.13,2.13,1,.29,1.93.59,2.82.88,3.73,1.21,6.95,2.26,11.82,1.27,1.22-.25,2.59-.63,4.3-1.2,3.45-1.15,6.49-2.95,9.43-4.69,6.18-3.66,12.02-7.11,20.97-4.41,6.33,1.91,12,5.21,17.47,8.4,6.25,3.64,12.14,7.07,18.93,8.61,3.33.75,6.83,1.18,10.53,1.64,4.08.5,8.29,1.02,12.45,2.02v-.59Z"/>
          <path class="cls-2" d="m445.04,114.65c-3.87-1.1-7.74-1.96-11.49-2.79-4.01-.89-7.8-1.72-11.22-2.77-6.06-1.86-11.38-5.35-17.01-9.05-5.56-3.65-11.31-7.42-18-9.66-9.78-3.27-16.87.66-23.72,4.47-2.49,1.38-5.07,2.82-7.76,3.9-1.37.55-2.78,1.11-4.01,1.52-4.43,1.48-6.86,1.11-10.54.54-.72-.11-1.48-.23-2.31-.34-.64-.09-1.32-.18-2.03-.28-2.1-.3-4.47-.64-7.16-.88-6.28-.56-12.89-.99-18.72.55-3.99,1.05-7.56,2.94-10.9,5.76-3.08,2.6-5.39,5.8-7.07,8.29-.66.99-1.33,2.01-2,3.04-3.57,5.5-7.26,11.19-12.88,14.87-5.65,3.69-12.87,2.81-19.24,2.03-3.34-.41-6.5-.79-9.05-.46-4.58.6-7.3,2.26-10.46,4.18-4.34,2.64-9.27,5.64-20.76,7.24-1.32.18-2.63.35-3.95.52-16.33,2.02-30.51-4.08-41.04-9.62-2.15-1.13-4.28-2.33-6.54-3.6l-.54-.3c-.98-.56-1.96-1.11-2.94-1.67-10.48-5.97-21.32-12.13-34.4-13.96-11.1-1.55-18.26,2.96-25.85,7.74-3.5,2.2-7.12,4.48-11.16,6.1-14.69,5.9-35.39,7.75-53.65,9.39-6.59.59-12.81,1.15-18.54,1.86-7.28.91-16.35,2.03-22.65,6.05-.36.23-.71.47-1.04.71-4.42,3.19-6.92,7.38-9.34,11.44-1.2,2.01-2.44,4.09-3.9,6.03-.77,1.03-1.6,1.98-2.45,2.9v.93c1.07-1.09,2.07-2.26,3.02-3.52,1.48-1.97,2.73-4.06,3.93-6.08,2.5-4.19,4.86-8.15,9.18-11.26.33-.23.66-.46,1.01-.69,6.16-3.93,15.13-5.05,22.34-5.94,5.72-.71,11.93-1.27,18.51-1.86,18.31-1.64,39.07-3.5,53.87-9.44,4.1-1.65,7.75-3.94,11.27-6.16,7.47-4.7,14.53-9.14,25.33-7.64,12.93,1.81,23.23,7.67,34.13,13.87.98.56,1.96,1.12,2.95,1.67l.54.3c2.26,1.27,4.39,2.47,6.55,3.61,10.63,5.59,24.96,11.75,41.5,9.7,1.32-.16,2.64-.33,3.96-.52,11.65-1.62,16.86-4.79,21.05-7.34,3.08-1.88,5.75-3.5,10.17-4.08,2.45-.32,5.56.06,8.85.46,6.5.8,13.87,1.7,19.75-2.14,5.74-3.75,9.46-9.49,13.06-15.04.67-1.03,1.33-2.05,1.99-3.04,1.65-2.46,3.94-5.61,6.96-8.17,3.26-2.76,6.74-4.6,10.62-5.62,5.7-1.5,12.24-1.08,18.44-.53,2.66.24,5.03.58,7.12.88.72.1,1.4.2,2.04.29.82.11,1.58.23,2.3.34,3.66.56,6.3.97,10.91-.57,1.25-.42,2.67-.99,4.05-1.54,2.73-1.1,5.33-2.54,7.84-3.94,7.01-3.89,13.64-7.57,23.09-4.41,6.6,2.2,12.31,5.95,17.84,9.58,5.67,3.72,11.04,7.24,17.2,9.14,3.45,1.06,7.26,1.9,11.29,2.79,3.81.84,7.74,1.72,11.67,2.84v-.6Z"/>
          <path class="cls-2" d="m445.04,123.96c-2.11-.68-4.21-1.34-6.29-2-6.02-1.89-11.71-3.68-16.34-5.54-5.46-2.19-10.26-5.72-15.33-9.47-5.59-4.12-11.37-8.39-18.35-10.96-10.58-3.89-18.75.53-26.66,4.81-1.78.96-3.61,1.95-5.43,2.82-.88.42-1.69.82-2.44,1.2-.48.24-.93.47-1.36.68-4.7,2.29-6.57,2.36-11.07,2.52h-.39c-1.74.08-3.8,0-6.19-.08-.94-.03-1.92-.07-2.95-.09h-.19c-6.39-.18-12.99-.36-18.65,1.5-3.91,1.28-7.19,3.36-10.33,6.53-2.66,2.68-4.59,5.81-6.28,8.78l-.84,1.49c-3.42,6.07-7.31,12.95-13.83,16.73-6.52,3.77-14.58,1.84-21.05.28-2.49-.6-4.85-1.16-6.77-1.31-5.5-.42-8.52.76-13.11,2.55-4.18,1.63-9.38,3.66-18.77,5.41-1.31.25-2.63.49-3.94.75-13.23,2.55-26.19.41-42-6.94-2.34-1.09-4.63-2.25-7.37-3.66-1.59-.82-3.17-1.65-4.75-2.48-10.76-5.65-20.91-10.99-33.65-12.58-10.51-1.31-17.51,2.72-24.91,6.98-3.37,1.94-6.86,3.94-10.7,5.39-14.69,5.53-34.93,7.28-52.79,8.84-5.64.49-10.97.95-15.97,1.51-7.29.82-15.56,1.74-21.67,5.13-.35.2-.69.4-1.02.6-4.42,2.76-7.13,6.39-9.75,9.9-1.24,1.66-2.52,3.37-3.96,4.99-2.66,2.97-5.71,5.37-9.21,7.28v.67c3.72-1.98,6.95-4.49,9.75-7.61,1.47-1.63,2.75-3.36,4-5.03,2.71-3.63,5.26-7.06,9.58-9.75.32-.2.65-.4.99-.58,5.98-3.32,14.16-4.24,21.38-5.05,4.99-.56,10.31-1.02,15.95-1.51,17.91-1.56,38.21-3.32,52.99-8.88,3.89-1.47,7.41-3.48,10.8-5.44,7.3-4.19,14.18-8.16,24.43-6.88,12.6,1.57,22.7,6.88,33.39,12.5,1.58.83,3.16,1.66,4.75,2.48,2.75,1.41,5.04,2.57,7.39,3.67,15.97,7.43,29.07,9.59,42.48,7,1.31-.25,2.63-.5,3.94-.75,9.46-1.76,14.7-3.81,18.91-5.45,4.49-1.75,7.45-2.91,12.76-2.5,1.86.14,4.18.7,6.64,1.29,6.61,1.59,14.84,3.57,21.62-.36,6.67-3.86,10.59-10.82,14.05-16.95l.84-1.49c1.67-2.94,3.58-6.03,6.19-8.67,3.06-3.1,6.26-5.12,10.06-6.36,5.53-1.81,12.06-1.63,18.38-1.46h.19c1.03.03,2.01.07,2.95.1,2.4.08,4.48.16,6.24.09h.39c4.48-.18,6.53-.25,11.38-2.61.44-.21.89-.44,1.37-.68.75-.37,1.55-.78,2.43-1.19,1.83-.87,3.67-1.87,5.46-2.83,7.75-4.19,15.77-8.53,26.02-4.76,6.89,2.53,12.62,6.77,18.17,10.86,5.11,3.77,9.94,7.34,15.49,9.56,4.66,1.87,10.36,3.66,16.4,5.56,2.15.68,4.34,1.37,6.53,2.07v-.61Z"/>
          <path class="cls-2" d="m445.04,133.31s-.07-.03-.11-.04c-7.56-2.67-15.95-6.22-22.44-9.51-4.88-2.46-9.15-6.01-13.68-9.77-5.6-4.64-11.38-9.45-18.67-12.38-11.94-4.81-22.1.92-31.06,5.97l-1.62.91c-1.36.76-2.53,1.52-3.6,2.23l-.85.57c-3.77,2.54-5.04,3.39-9.22,4.31-2.35.52-5.5.66-9.09.79l-1.81.06c-5.92.19-12.04.38-17.14,2.38-3.79,1.49-6.9,3.81-9.76,7.3-2.38,2.9-4.09,6.31-5.5,9.28-3.11,6.55-6.98,14.7-14.46,18.53-7.62,3.9-16.58.44-23.12-2.08-1.54-.6-3-1.16-4.23-1.53-7.42-2.27-11.04-1.26-19.77,1.17-3.31.92-7.42,2.07-12.78,3.32-1.38.32-2.67.64-3.94.98-13.73,3.59-26.98,2.28-42.96-4.26-2.39-.98-4.79-2.07-7.67-3.41-2.16-1.02-4.33-2.07-6.42-3.09-10.58-5.16-20.57-10.04-33.04-11.39-9.92-1.08-16.76,2.46-24,6.21-3.23,1.67-6.58,3.41-10.21,4.67-14.88,5.2-34.89,6.86-52.53,8.33-4.49.37-8.73.73-12.79,1.12-6.93.68-14.79,1.45-20.69,4.21-.34.16-.67.33-1,.5-4.45,2.32-7.39,5.39-10.23,8.37-1.25,1.31-2.54,2.66-3.96,3.94-4.02,3.65-8.73,6.32-14.39,8.14-.52.17-1.06.32-1.59.47v.6c.62-.17,1.23-.35,1.83-.54,5.76-1.85,10.55-4.56,14.64-8.28,1.43-1.3,2.73-2.66,3.99-3.97,2.94-3.07,5.71-5.97,10.06-8.24.31-.16.64-.33.97-.48,5.78-2.71,13.23-3.44,20.44-4.15,4.05-.4,8.29-.75,12.78-1.12,17.7-1.47,37.75-3.14,52.73-8.37,3.68-1.29,7.05-3.03,10.31-4.72,7.13-3.69,13.87-7.18,23.56-6.13,12.33,1.34,22.27,6.19,32.79,11.32,2.09,1.02,4.26,2.08,6.43,3.1,2.88,1.35,5.3,2.45,7.7,3.43,16.14,6.61,29.54,7.93,43.46,4.3,1.27-.33,2.55-.65,3.92-.97,5.37-1.26,9.49-2.41,12.81-3.33,8.82-2.46,12.12-3.38,19.32-1.17,1.2.37,2.65.93,4.18,1.52,6.68,2.58,15.83,6.1,23.76,2.05,7.68-3.93,11.59-12.18,14.74-18.8,1.4-2.94,3.08-6.32,5.43-9.17,2.8-3.4,5.81-5.66,9.5-7.11,4.98-1.96,11.03-2.15,16.88-2.33l1.81-.06c3.62-.13,6.81-.27,9.23-.8,4.32-.95,5.72-1.89,9.47-4.42l.85-.57c1.05-.7,2.21-1.46,3.55-2.2l1.62-.91c8.81-4.97,18.8-10.6,30.39-5.93,7.19,2.89,12.93,7.66,18.49,12.27,4.56,3.78,8.86,7.35,13.8,9.85,6.52,3.29,14.94,6.86,22.52,9.54.12.04.25.09.37.13v-.61Z"/>
          <path class="cls-2" d="m445.04,142.69c-.2-.08-.41-.15-.6-.23-6.4-2.45-13.76-6.27-21.86-11.35-4.29-2.69-8.05-6.2-12.04-9.92-5.58-5.21-11.36-10.61-18.97-13.95-12.73-5.58-25.09.83-33.28,6.14-1.16.75-2.26,1.6-3.38,2.59-1.32,1.18-2.26,2.19-3.09,3.07-1.62,1.73-2.78,2.98-5.59,4.16-2.4,1-5.76,1.43-9.04,1.75-.99.1-2,.18-3.02.27-5.59.47-11.36.96-16.05,3.12-3.7,1.7-6.62,4.26-9.19,8.07-1.99,2.94-3.31,6.17-4.72,9.78-3.03,7.81-6.85,15.5-14.26,18.84-9.06,4.09-19.27-1.79-25.37-5.31-.54-.31-1.05-.61-1.53-.87-9.94-5.59-13.95-4.45-33.19,1.01-1.32.37-2.64.78-3.94,1.21-14.23,4.68-27.77,4.19-43.92-1.59-2.82-1.01-5.61-2.17-7.96-3.17-2.71-1.16-5.39-2.37-7.98-3.55-10.43-4.74-20.28-9.22-32.54-10.36-9.35-.87-16.04,2.19-23.13,5.44-3.08,1.41-6.27,2.87-9.69,3.96-15.46,4.94-35.66,6.51-53.48,7.89-2.88.22-5.7.44-8.42.67l-.32.03c-6.76.56-13.75,1.14-19.37,3.27-.33.13-.66.26-.98.39-4.52,1.89-7.59,4.29-10.84,6.84-1.22.95-2.47,1.94-3.81,2.89-4.08,2.9-8.72,5.05-14.2,6.57-2.71.75-5.6,1.33-8.55,1.84v.58c3.02-.52,5.98-1.11,8.76-1.88,5.56-1.54,10.28-3.72,14.43-6.67,1.35-.96,2.61-1.95,3.84-2.91,3.21-2.51,6.25-4.89,10.68-6.74.31-.13.63-.26.95-.38,5.53-2.09,12.46-2.66,19.16-3.22l.33-.03c2.72-.23,5.53-.44,8.41-.67,17.86-1.38,38.11-2.95,53.66-7.92,3.46-1.11,6.67-2.57,9.77-4,6.99-3.2,13.58-6.22,22.73-5.37,12.12,1.12,21.92,5.58,32.29,10.29,2.6,1.18,5.28,2.4,8,3.56,2.37,1.01,5.17,2.17,8.01,3.19,16.32,5.84,30.02,6.34,44.43,1.6,1.29-.42,2.6-.83,3.91-1.2,18.98-5.39,22.93-6.51,32.6-1.08.47.26.98.56,1.52.87,6.23,3.59,16.65,9.59,26.08,5.34,7.61-3.44,11.51-11.24,14.58-19.16,1.39-3.58,2.7-6.78,4.66-9.67,2.51-3.71,5.35-6.2,8.93-7.85,4.57-2.1,10.28-2.58,15.8-3.05,1.02-.09,2.03-.17,3.03-.27,3.34-.32,6.77-.76,9.26-1.8,2.94-1.23,4.15-2.53,5.82-4.32.82-.88,1.75-1.87,3.05-3.03,1.09-.98,2.18-1.8,3.3-2.53,8.04-5.22,20.17-11.52,32.56-6.09,7.51,3.29,13.24,8.65,18.79,13.82,4.01,3.74,7.79,7.28,12.13,10,8.14,5.1,15.53,8.94,21.98,11.41.28.11.58.22.89.33v-.62Z"/>
          <path class="cls-2" d="m445.04,152.09c-.36-.14-.72-.28-1.1-.43-7.87-3.25-15.51-8.76-21.27-13.19-3.7-2.84-6.95-6.27-10.4-9.9-5.55-5.85-11.3-11.9-19.28-15.7-12-5.71-25.37-.95-33.88,5.41-1.18.87-2.21,1.84-3.16,2.95-1.43,1.67-2.26,3.19-2.98,4.52-1.04,1.92-1.94,3.57-4.3,5.07-2.39,1.52-5.89,2.22-9,2.7-1.29.2-2.61.38-3.95.56-5.34.72-10.86,1.46-15.23,3.77-3.61,1.91-6.35,4.72-8.62,8.83-1.75,3.17-2.84,6.72-3.89,10.15l-.04.12c-2.04,6.64-5.72,15.86-14.05,19.15-7.42,2.94-16.08.08-26.46-8.74-9.68-8.23-15.37-8.64-33.82-2.48-1.3.43-2.62.92-3.93,1.44-14.71,5.83-28.55,6.16-44.88,1.09-2.37-.74-4.99-1.67-8.26-2.93-3.22-1.25-6.38-2.59-9.44-3.9-10.31-4.38-20.05-8.52-32.14-9.44-8.81-.67-15.37,1.92-22.31,4.67-2.91,1.15-5.93,2.34-9.1,3.25-17.01,4.89-39.39,6.38-57.37,7.58l-2.13.14c-6.1.4-12.4.82-17.68,2.31-.32.09-.64.19-.95.28-4.73,1.47-8.17,3.35-11.8,5.35-1.08.59-2.17,1.19-3.32,1.79-4.11,2.15-8.7,3.78-14.02,4.99-3.71.84-7.79,1.49-11.74,2.12-1.26.2-2.52.4-3.78.61v.58c1.3-.22,2.61-.42,3.9-.63,3.96-.63,8.05-1.28,11.79-2.13,5.39-1.23,10.04-2.88,14.21-5.06,1.15-.6,2.25-1.2,3.33-1.8,3.6-1.98,7.01-3.85,11.67-5.29.31-.09.62-.19.93-.28,5.2-1.46,11.47-1.88,17.52-2.28l2.13-.14c18.02-1.2,40.44-2.69,57.53-7.61,3.21-.92,6.24-2.12,9.17-3.28,6.86-2.71,13.35-5.26,21.96-4.61,11.96.91,21.64,5.03,31.89,9.38,3.07,1.3,6.23,2.65,9.47,3.91,3.28,1.27,5.92,2.2,8.31,2.95,16.52,5.13,30.52,4.79,45.41-1.11,1.3-.51,2.61-.99,3.89-1.42,19.2-6.42,24.04-5.34,33.09,2.35,10.61,9.02,19.52,11.91,27.23,8.86,8.59-3.4,12.34-12.77,14.42-19.52l.04-.12c1.05-3.41,2.13-6.93,3.85-10.05,2.21-4.01,4.87-6.74,8.37-8.59,4.25-2.25,9.71-2.98,14.98-3.69,1.35-.18,2.68-.36,3.97-.56,3.18-.5,6.78-1.22,9.28-2.81,2.5-1.58,3.43-3.3,4.51-5.28.71-1.31,1.52-2.8,2.92-4.43.92-1.08,1.93-2.01,3.06-2.86,8.34-6.23,21.41-10.9,33.1-5.34,7.87,3.74,13.57,9.75,19.08,15.56,3.46,3.65,6.73,7.09,10.47,9.96,5.8,4.46,13.48,10,21.43,13.29.48.2.94.38,1.4.55v-.62Z"/>
          <path class="cls-2" d="m445.04,161.5c-.52-.2-1.05-.42-1.6-.66-7.81-3.46-15.16-9.85-20.7-15.04-3.1-2.9-5.84-6.18-8.75-9.65-5.51-6.57-11.2-13.36-19.58-17.68-11.89-6.12-26.35-2.28-34.48,4.67-1.15.98-2.14,2.09-2.94,3.31-1.33,2.02-1.88,3.88-2.42,5.69-.7,2.35-1.31,4.39-3.46,6.26-1.85,1.61-4.53,2.7-8.97,3.66-1.51.33-3.06.61-4.69.9-5.16.94-10.49,1.9-14.61,4.37-3.53,2.12-6.09,5.17-8.05,9.6-1.39,3.18-2.2,6.66-2.98,10.03l-.17.74c-2.47,10.6-7.13,17.15-13.85,19.47-11.79,4.06-22.91-7.63-26.05-11.31-8.69-10.22-15.39-13.31-34.43-5.96-1.29.5-2.61,1.06-3.92,1.67-15.37,7.12-29.08,8.24-45.85,3.76-2.53-.68-5.33-1.55-8.56-2.69-3.71-1.31-7.32-2.75-10.81-4.14-10.22-4.08-19.87-7.93-31.83-8.63-8.3-.48-15.07,1.75-21.63,3.9-2.7.89-5.49,1.81-8.38,2.54-17.96,4.54-40.01,6.03-55.04,6.76l-2.23.1c-5.27.24-10.71.49-15.48,1.35-.31.06-.62.12-.93.18-5.41,1.07-9.59,2.5-14.01,4.02l-1.56.53c-4.05,1.38-8.58,2.5-13.85,3.42-2.01.35-4.05.67-6.21,1.01-5.52.87-11.14,1.75-16.28,3.17v.6c5.15-1.44,10.82-2.34,16.4-3.21,2.16-.34,4.21-.66,6.22-1.01,5.31-.93,9.88-2.06,13.97-3.45l1.56-.53c4.59-1.57,8.56-2.93,13.91-3.99.3-.06.61-.12.92-.17,4.72-.85,10.14-1.1,15.38-1.34l2.23-.1c15.06-.73,37.17-2.22,55.2-6.78,2.91-.74,5.72-1.66,8.43-2.55,6.79-2.23,13.2-4.34,21.33-3.86,11.84.69,21.43,4.52,31.59,8.57,3.5,1.4,7.12,2.84,10.84,4.15,3.25,1.14,6.07,2.02,8.61,2.7,16.96,4.53,30.83,3.39,46.38-3.81,1.3-.6,2.6-1.16,3.88-1.65,18.33-7.07,24.74-4.63,33.6,5.78,3.2,3.77,14.6,15.73,26.85,11.51,6.94-2.39,11.74-9.08,14.26-19.88l.17-.74c.78-3.35,1.58-6.8,2.95-9.94,1.91-4.32,4.39-7.29,7.81-9.34,4-2.4,9.27-3.35,14.36-4.28,1.57-.28,3.19-.58,4.71-.91,4.57-.98,7.35-2.12,9.29-3.81,2.28-1.98,2.94-4.18,3.63-6.52.53-1.77,1.07-3.6,2.36-5.55.77-1.18,1.73-2.25,2.83-3.19,7.75-6.63,22.18-10.48,33.64-4.58,8.26,4.25,13.92,11,19.38,17.52,2.92,3.48,5.68,6.77,8.8,9.7,5.57,5.22,12.98,11.66,20.88,15.16.65.29,1.29.54,1.91.77v-.62Z"/>
          <path class="cls-2" d="m445.04,170.91c-.68-.25-1.38-.53-2.09-.87-6.02-2.84-12.79-8.52-20.12-16.88-2.49-2.84-4.73-5.88-7.1-9.1-5.44-7.4-11.07-15.05-19.89-19.95-11.83-6.57-27.69-3.27-35.07,3.93-1.12,1.09-2.03,2.33-2.71,3.67-1.15,2.29-1.45,4.54-1.74,6.71-.36,2.73-.7,5.3-2.74,7.6-1.75,1.97-4.51,3.4-8.96,4.61-1.7.46-3.52.88-5.29,1.28-5.02,1.14-10.21,2.31-14.13,4.94-3.48,2.34-5.86,5.63-7.48,10.37-1.07,3.16-1.62,6.57-2.15,9.86l-.23,1.4c-1.24,7.54-4.61,17.09-13.65,19.78-10.32,3.07-20.26-5.56-25.64-13.88-8.1-12.53-16.08-17.75-35.02-9.44-1.28.56-2.6,1.2-3.92,1.9-15.81,8.36-29.81,10.29-46.81,6.44-2.7-.61-5.6-1.41-8.86-2.45-4.18-1.33-8.2-2.84-12.09-4.3-10.15-3.82-19.74-7.42-31.62-7.89-7.88-.31-14.67,1.45-21.23,3.15-2.39.62-4.86,1.26-7.37,1.8-15.26,3.28-33.6,5.36-51.62,5.86-1.62.04-3.25.08-4.87.11-3.97.08-8.07.15-11.84.44l-.9.07c-5.64.46-10.43,1.05-16.03,1.97-4.35.72-8.96,1.28-13.69,1.84-10.91,1.29-22.06,3.01-29.45,8.05v.74c7.24-5.18,18.51-6.92,29.55-8.23,4.74-.56,9.36-1.13,13.73-1.85,5.57-.92,10.35-1.5,15.96-1.96l.9-.07c3.75-.28,7.84-.36,11.8-.43,1.63-.03,3.26-.06,4.88-.11,18.07-.5,36.45-2.59,51.76-5.88,2.53-.54,5.01-1.19,7.41-1.81,6.81-1.77,13.23-3.44,21-3.13,11.76.46,21.29,4.05,31.38,7.84,3.9,1.47,7.93,2.98,12.12,4.32,3.28,1.04,6.19,1.84,8.92,2.46,17.2,3.9,31.37,1.95,47.35-6.51,1.3-.69,2.6-1.32,3.87-1.87,18.46-8.09,26.23-3,34.12,9.21,5.5,8.52,15.74,17.34,26.46,14.15,9.37-2.79,12.83-12.54,14.09-20.24l.23-1.4c.53-3.27,1.07-6.66,2.13-9.78,1.58-4.62,3.88-7.82,7.25-10.08,3.8-2.55,8.93-3.71,13.88-4.83,1.77-.4,3.61-.82,5.32-1.29,3.09-.85,6.93-2.16,9.29-4.81,2.14-2.41,2.49-5.06,2.87-7.87.28-2.13.58-4.34,1.69-6.55.65-1.29,1.52-2.47,2.6-3.52,7.2-7.02,22.65-10.23,34.19-3.83,8.71,4.83,14.29,12.43,19.69,19.77,2.27,3.09,4.62,6.28,7.13,9.14,7.39,8.42,14.23,14.16,20.33,17.04.83.39,1.64.72,2.43,1v-.62Z"/>
          <path class="cls-2" d="m445.04,180.33c-.84-.29-1.7-.65-2.59-1.1-8.59-4.3-16.53-14.52-19.55-18.72-1.89-2.63-3.7-5.46-5.44-8.19-5.34-8.36-10.86-17.01-20.2-22.59-10.95-6.54-28.29-4.99-35.67,3.19-1.09,1.2-1.92,2.56-2.48,4.03-.96,2.53-1,5.13-1.04,7.64-.05,3.23-.09,6.29-2.03,9.03-1.67,2.35-4.42,4.07-8.95,5.57-1.83.6-3.81,1.14-5.73,1.66-4.93,1.33-10.04,2.71-13.8,5.5-3.44,2.57-5.64,6.11-6.9,11.13-.78,3.13-1.09,6.45-1.39,9.66-.07.7-.13,1.4-.2,2.09-.5,5.15-2.82,17.41-13.45,20.1-11.06,2.83-20.51-7.1-25.24-16.46-4.76-9.41-9.87-14.6-16.08-16.32-5.44-1.5-11.83-.39-19.53,3.4-1.24.61-2.56,1.33-3.91,2.13-16.18,9.66-30.47,12.38-47.78,9.11-2.88-.54-5.87-1.26-9.15-2.2-4.62-1.32-9.02-2.89-13.28-4.41-10.11-3.6-19.66-7-31.5-7.22-7.81-.14-14.93,1.2-21.82,2.49-1.78.33-3.57.67-5.38.98-12.09,2.09-30.23,4.89-48.19,4.96-5.23.02-10.63-.17-15.71-.37l-.88-.03c-1.83-.07-3.59-.15-5.33-.24-3.79-.18-7.37-.35-11.15-.37-4.03-.02-8.74-.02-13.54.25-9.78.56-22.81,2.84-29.33,10.47-4.59,5.38-4.89,12.34-5.18,19.07-.2,4.57-.4,9.25-1.91,13.55v1.8c2.12-4.82,2.36-10.14,2.58-15.34.3-6.95.58-13.51,5.06-18.76,6.37-7.46,19.19-9.68,28.83-10.24,4.77-.27,9.46-.27,13.48-.25,3.76.02,7.33.19,11.11.37,1.74.08,3.51.17,5.34.24l.88.03c5.09.2,10.49.39,15.75.37,18.02-.08,36.21-2.88,48.32-4.98,1.81-.31,3.6-.65,5.39-.98,7.17-1.35,13.93-2.62,21.66-2.48,11.7.21,21.2,3.59,31.25,7.17,4.27,1.52,8.68,3.09,13.32,4.42,3.31.95,6.32,1.67,9.22,2.22,17.52,3.31,31.97.55,48.32-9.2,1.33-.79,2.63-1.5,3.86-2.1,7.52-3.71,13.73-4.8,18.97-3.35,6.01,1.66,10.99,6.75,15.67,16,4.84,9.57,14.57,19.72,26.06,16.78,11.03-2.79,13.42-15.33,13.93-20.59.07-.69.14-1.39.2-2.1.3-3.19.6-6.5,1.38-9.59,1.24-4.9,3.36-8.34,6.69-10.83,3.66-2.71,8.69-4.07,13.56-5.38,1.93-.52,3.93-1.06,5.77-1.67,3.14-1.05,7.04-2.66,9.28-5.81,2.03-2.87,2.08-6,2.13-9.31.04-2.47.07-5.02,1.01-7.48.53-1.41,1.33-2.7,2.37-3.85,7.17-7.96,24.06-9.45,34.74-3.07,9.21,5.5,14.69,14.09,20,22.4,1.75,2.74,3.56,5.57,5.46,8.22,3.78,5.26,11.38,14.7,19.78,18.91,1,.5,1.98.91,2.94,1.22v-.61Z"/>
          <path class="cls-2" d="m445.04,189.68c-8.78-2.8-17.51-14.04-22.07-21.82-1.31-2.23-2.58-4.56-3.82-6.82-5.19-9.51-10.57-19.34-20.48-25.69-7.18-4.6-18.23-6-26.87-3.4-6.17,1.85-10.31,5.49-11.64,10.24-.77,2.76-.55,5.68-.34,8.5.28,3.76.55,7.31-1.32,10.52-2.77,4.77-8.78,6.64-15.15,8.62-4.84,1.51-9.85,3.06-13.45,6.01-6.6,5.41-6.83,13.65-7.06,21.63-.02.85-.05,1.69-.08,2.52-.16,4.16-1.59,17.92-13.25,20.41-11.65,2.49-20.67-8.7-24.85-19.04-4.69-11.61-10.57-18.14-17.97-19.99-6.3-1.57-13.75.44-22.12,5.96-19.47,12.84-35.79,15.6-58.2,9.83-5.03-1.29-9.78-2.9-14.38-4.46-10-3.39-19.46-6.59-31.12-6.59-.11,0-.23,0-.34,0-11.71.06-23.03,1.59-33.98,3.08-16.64,2.25-33.84,4.58-52.14,1.57-2.97-.49-5.98-1.08-8.89-1.66-6.96-1.38-14.15-2.8-21.42-2.87-9.34-.07-21.29,2.73-26.64,10.88-3.71,5.65-3.29,12.39-2.88,18.91.42,6.72.86,13.68-3.36,19.24-.52.69-1.12,1.32-1.75,1.94h.9c.5-.52.98-1.06,1.42-1.63,4.33-5.72,3.89-12.76,3.46-19.58-.4-6.44-.82-13.1,2.8-18.61,5.13-7.82,16.53-10.59,25.65-10.59.13,0,.26,0,.39,0,7.19.06,14.35,1.48,21.27,2.85,2.92.58,5.93,1.18,8.91,1.66,18.42,3.02,35.69.69,52.38-1.57,10.92-1.48,22.22-3.01,33.87-3.07.11,0,.22,0,.34,0,11.53,0,20.93,3.18,30.87,6.55,4.61,1.56,9.38,3.18,14.43,4.48,22.36,5.76,39.4,2.88,58.82-9.93,8.19-5.4,15.43-7.37,21.51-5.86,7.18,1.79,12.91,8.2,17.52,19.62,4.27,10.57,13.55,22,25.66,19.41,12.12-2.59,13.6-16.69,13.76-20.94.03-.83.06-1.68.08-2.53.23-7.86.46-15.98,6.86-21.23,3.5-2.87,8.43-4.4,13.21-5.89,6.5-2.02,12.63-3.93,15.52-8.91,1.94-3.35,1.66-7.14,1.38-10.81-.21-2.78-.42-5.66.33-8.34,1.27-4.56,5.25-8.05,11.2-9.83,8.44-2.53,19.23-1.17,26.23,3.32,9.78,6.27,15.12,16.03,20.28,25.47,1.23,2.26,2.51,4.59,3.82,6.83,1.35,2.29,11.41,18.91,22.67,22.24v-.67Z"/>
        </g>
        <g>
          <path class="cls-2" d="m445.04,3.14c-3.91-.08-7.79.39-11.27,1.35-102.43,28.41-129.23,19.16-152.87,11-12.69-4.38-24.67-8.52-46.68-6.68-12.56,1.05-23.98,3.53-35.03,5.94-19.83,4.32-38.56,8.4-60.31,3.17-2.54-.61-5.14-1.3-7.65-1.96-10.02-2.66-20.39-5.4-30.91-4.33-15.81,1.61-27.48,10.34-38.76,18.79-5.83,4.36-11.85,8.87-18.31,12.26-18.06,9.49-28.97,5.02-41.6-.15-6.39-2.62-12.95-5.3-20.92-6.45v1.15c7.7,1.15,14.1,3.77,20.33,6.32,12.45,5.1,24.21,9.93,42.92.1,6.56-3.45,12.63-7.99,18.49-12.38,11.13-8.33,22.64-16.94,38.03-18.51,10.24-1.04,20.46,1.67,30.34,4.29,2.52.67,5.12,1.36,7.68,1.97,22.1,5.32,41.01,1.2,61.02-3.16,10.99-2.39,22.36-4.87,34.82-5.91,21.67-1.8,33.5,2.28,46.03,6.6,23.86,8.24,50.91,17.57,153.81-10.97,3.34-.93,7.09-1.38,10.84-1.3v-1.12Z"/>
          <path class="cls-2" d="m445.04,86.67c-4-.47-8.09-.24-12.07,0-3.59.22-7.3.44-10.87.13-7.9-.7-15.13-3.98-22.11-7.16-5.37-2.44-10.92-4.97-16.86-6.39-8.89-2.13-14.03,1.53-19,5.06-3.19,2.27-6.5,4.61-10.84,5.53-8.11,1.7-13.17-1.34-19.04-4.85-3.52-2.11-7.17-4.29-11.79-5.6-12.65-3.59-22.28-3.22-31.23,1.2-7.23,3.57-12.17,9.4-16.95,15.05-2.53,2.98-5.14,6.07-8.06,8.78-3.87,3.59-9.44,4.41-15.34,5.27-5.01.73-10.18,1.49-14.2,4.11-4.55,2.97-6.9,6.7-9.16,10.31-3.81,6.07-7.1,11.31-19.97,11.35-15.98.02-30.12-8.94-41.89-17.74l-2.64-1.99c-11.32-8.52-23.03-17.32-37.85-20.07-13.01-2.41-21.15,3.93-29.03,10.07-3.85,3.01-7.84,6.11-12.41,8.25-15.16,7.09-37.79,9.23-57.76,11.12-8.86.84-17.22,1.63-24.61,2.78-7.81,1.22-14.89,2.53-20.63,5.47v1.35c5.67-3.11,12.88-4.46,20.87-5.71,7.35-1.15,15.69-1.94,24.52-2.77,20.09-1.9,42.86-4.06,58.26-11.26,4.71-2.2,8.75-5.36,12.67-8.41,7.97-6.21,15.49-12.08,27.81-9.8,14.47,2.68,26.04,11.39,37.24,19.81l2.65,1.99c11.93,8.92,26.32,18.03,42.66,18.03h.14c13.68-.04,17.31-5.83,21.16-11.95,2.2-3.51,4.48-7.13,8.8-9.95,3.75-2.45,8.76-3.18,13.61-3.88,5.87-.86,11.94-1.74,16.12-5.63,2.97-2.76,5.61-5.87,8.16-8.88,4.7-5.55,9.56-11.28,16.53-14.73,8.58-4.23,17.86-4.57,30.11-1.1,4.43,1.26,7.99,3.39,11.43,5.45,5.88,3.52,11.44,6.85,20.15,5.02,4.65-.98,8.08-3.41,11.39-5.76,4.92-3.5,9.57-6.8,17.76-4.84,5.79,1.38,11.28,3.88,16.59,6.3,7.1,3.23,14.45,6.57,22.62,7.29,3.7.33,7.47.1,11.11-.12,3.96-.24,8.04-.48,11.97,0v-1.14Z"/>
          <path class="cls-2" d="m445.04,189.39c-8.62-2.8-17.25-13.95-21.76-21.65-1.31-2.23-2.58-4.56-3.81-6.81-5.21-9.54-10.6-19.4-20.58-25.79-7.26-4.65-18.44-6.07-27.19-3.45-6.29,1.89-10.5,5.59-11.85,10.44-.78,2.8-.56,5.74-.35,8.58.28,3.72.54,7.24-1.28,10.38-2.71,4.67-8.66,6.52-14.96,8.48-4.87,1.52-9.91,3.08-13.56,6.08-6.7,5.49-6.94,13.79-7.17,21.82-.02.85-.05,1.69-.08,2.52-.16,4.11-1.57,17.7-13,20.15-11.44,2.44-20.31-8.63-24.45-18.86-4.73-11.7-10.68-18.3-18.2-20.17-6.42-1.6-13.96.43-22.42,6.01-19.37,12.78-35.6,15.52-57.9,9.78-5.01-1.29-9.76-2.9-14.35-4.45-10.13-3.43-19.7-6.65-31.59-6.61-11.73.06-23.07,1.6-34.03,3.08-17.37,2.35-33.78,4.57-52.03,1.58-2.96-.49-5.97-1.08-8.88-1.66-6.97-1.38-14.19-2.81-21.49-2.87-9.48-.08-21.52,2.77-26.94,11.03-3.75,5.72-3.33,12.51-2.92,19.06.44,6.99.85,13.59-3.31,19.08-.57.75-1.22,1.43-1.9,2.09h1.78c.45-.47.87-.96,1.26-1.48,4.39-5.79,3.95-12.88,3.52-19.74-.4-6.4-.81-13.02,2.75-18.46,5.13-7.82,16.67-10.52,25.74-10.44,7.15.06,14.29,1.48,21.19,2.84,2.92.58,5.94,1.18,8.93,1.67,18.48,3.03,35.78.69,52.5-1.57,10.91-1.48,22.19-3,33.82-3.06,11.55-.07,21.07,3.14,31.07,6.53,4.62,1.56,9.39,3.18,14.46,4.49,22.48,5.78,39.61,2.9,59.13-9.97,8.1-5.34,15.23-7.3,21.2-5.81,6.97,1.73,12.79,8.28,17.3,19.44,4.32,10.69,13.73,22.23,26.06,19.59,12.34-2.64,13.85-16.9,14.02-21.21.03-.83.06-1.68.08-2.53.23-7.8.46-15.87,6.76-21.04,3.45-2.83,8.35-4.35,13.09-5.83,6.27-1.95,12.76-3.97,15.7-9.05,1.98-3.41,1.69-7.24,1.42-10.95-.21-2.76-.42-5.62.32-8.25,1.25-4.46,5.15-7.88,10.99-9.63,8.34-2.5,18.99-1.15,25.91,3.28,9.71,6.22,15.03,15.96,20.17,25.37,1.23,2.26,2.51,4.6,3.83,6.84,1.36,2.32,11.52,19.09,22.98,22.4v-1.25Z"/>
        </g>
      </g>
    </g>
  </g>
</svg>